<svg id="b511ee3d-ec21-4e99-b372-bde9f19fac4a" data-name="f76ab2c6-88cf-4cb3-8537-8c2800f72772" xmlns="http://www.w3.org/2000/svg" xmlns:xlink="http://www.w3.org/1999/xlink" viewBox="0 0 1491.23 1318.499"><defs><style>.b516c66b-8cad-4c7a-9f5f-0fd001bd766d,.ef8cf05a-f333-4ec9-939c-7f8a282fb5d1{fill:none;}.e5a6ffdd-7faf-4b4b-994e-c25514b9322e{clip-path:url(#bcc467c8-0df6-4ca4-95e4-7bea939ce9f5);}.b4db6a2c-e2c7-4c12-82ea-4d22f8c5e2fc{fill:#396c7a;}.a46814cb-46b8-4529-a5b9-e352091238cd{fill:#b2ffc9;}.ea4bb995-03c6-4143-9ff2-8e624bc72c71{fill:#c48f59;}.ffd286fa-430f-4726-be1b-6634162d2aef{fill:#2a3436;}.fa59bd81-e484-4a15-9934-a012e6101896{fill:#93e5ab;}.bc802f1a-b92b-4e4b-999f-4694f326e250{fill:#fff2f1;}.ae46dad7-de99-490c-b3de-9476dc3f7d48{fill:#fff;}.b516c66b-8cad-4c7a-9f5f-0fd001bd766d{stroke:#231f20;stroke-miterlimit:10;}</style><clipPath id="bcc467c8-0df6-4ca4-95e4-7bea939ce9f5" transform="translate(-50.675 -4)"><rect class="ef8cf05a-f333-4ec9-939c-7f8a282fb5d1" x="84.3" y="304.227" width="1418.929" height="995.95"/></clipPath></defs><title>meeting2</title><g id="eceae0e8-d455-4940-aab8-5aa40aed5a59" data-name="fd65780e-0fab-450e-b8f1-801f2a5b5881"><g class="e5a6ffdd-7faf-4b4b-994e-c25514b9322e"><path class="b4db6a2c-e2c7-4c12-82ea-4d22f8c5e2fc" d="M84.3,304.227H1503.2289v995.95H84.3Z" transform="translate(-50.675 -4)"/></g><g class="e5a6ffdd-7faf-4b4b-994e-c25514b9322e"><path class="b4db6a2c-e2c7-4c12-82ea-4d22f8c5e2fc" d="M776.516,247.534V975.491L50.675,1322.499l32-1123Z" transform="translate(-50.675 -4)"/></g><g class="e5a6ffdd-7faf-4b4b-994e-c25514b9322e"><path class="a46814cb-46b8-4529-a5b9-e352091238cd" d="M295.625,495.437l-86.418,43.221V666.79l86.418-44.012Z" transform="translate(-50.675 -4)"/></g><g class="e5a6ffdd-7faf-4b4b-994e-c25514b9322e"><path class="ea4bb995-03c6-4143-9ff2-8e624bc72c71" d="M315.417,459.632l-36.115,18.062v53.548l36.115-18.393Z" transform="translate(-50.675 -4)"/></g><g class="e5a6ffdd-7faf-4b4b-994e-c25514b9322e"><path class="ffd286fa-430f-4726-be1b-6634162d2aef" d="M1524.973,806.707,1035.682,598.572V14.725l489.291,206.764Z" transform="translate(-50.675 -4)"/><path class="fa59bd81-e484-4a15-9934-a012e6101896" d="M1541.905,795.981,1052.614,587.847V4l489.291,206.764Z" transform="translate(-50.675 -4)"/><path class="ffd286fa-430f-4726-be1b-6634162d2aef" d="M1280.327,164.955h16.932V690.777h-16.932Z" transform="translate(-50.675 -4)"/><path class="ffd286fa-430f-4726-be1b-6634162d2aef" d="M1052.614,386.575v17.927l472.359,200.932V587.506Z" transform="translate(-50.675 -4)"/></g><g class="e5a6ffdd-7faf-4b4b-994e-c25514b9322e"><path class="a46814cb-46b8-4529-a5b9-e352091238cd" d="M1006.587,605.517l-67.208-31.848V446.798l67.208,31.55Z" transform="translate(-50.675 -4)"/></g><g class="e5a6ffdd-7faf-4b4b-994e-c25514b9322e"><path class="ffd286fa-430f-4726-be1b-6634162d2aef" d="M466.417,1001.296h0a22.1113,22.1113,0,0,0,20-24.0378v-.0012L472.663,795.974l-52.76,4.837,22.6229,181.712A22.1134,22.1134,0,0,0,466.417,1001.296Z" transform="translate(-50.675 -4)"/><path class="ffd286fa-430f-4726-be1b-6634162d2aef" d="M405.573,1000.397h0a22.1122,22.1122,0,0,0,23.386-20.76l13.646-181.292-52.888-3.146-4.942,183.049A22.1111,22.1111,0,0,0,405.573,1000.397Z" transform="translate(-50.675 -4)"/><path class="ffd286fa-430f-4726-be1b-6634162d2aef" d="M354.315,1213.088l35.365,5.393,37.083-231.238a21.0987,21.0987,0,0,0-17.677-24.037h0A21.0976,21.0976,0,0,0,385.05,980.8829q-.0609.4-.1065.8012Z" transform="translate(-50.675 -4)"/><path class="bc802f1a-b92b-4e4b-999f-4694f326e250" d="M390.075,1216.418l22.677,13.11-59.804-7.123,1.222-10.264Z" transform="translate(-50.675 -4)"/><path class="ffd286fa-430f-4726-be1b-6634162d2aef" d="M449.358,1219.022l35.774.017,1.911-234.186a21.0964,21.0964,0,0,0-21.0868-21.106h-.0012a21.097,21.097,0,0,0-21.1072,21.087q0,.4046.0152.809Z" transform="translate(-50.675 -4)"/><path class="ffd286fa-430f-4726-be1b-6634162d2aef" d="M477.562,804.634s-25.536,4.604-50.282,4.604c-21.283,0-46.868-5.888-46.868-5.888l-6.434-99.267A21.6011,21.6011,0,0,1,394.1372,681.13q.6975-.0451,1.3968-.0452h86.54Z" transform="translate(-50.675 -4)"/><path class="ffd286fa-430f-4726-be1b-6634162d2aef" d="M416.399,767.577l-10.028,23.082,3.495,1.823,9.362-23.234Z" transform="translate(-50.675 -4)"/><path class="ae46dad7-de99-490c-b3de-9476dc3f7d48" d="M466.254,681.085H413.307l25.158,88.755Z" transform="translate(-50.675 -4)"/><path class="ffd286fa-430f-4726-be1b-6634162d2aef" d="M345.962,822.167,407.26,716.436a21.1744,21.1744,0,0,0-7.5907-28.9672q-.6309-.369-1.2863-.6938h0a21.1743,21.1743,0,0,0-28.373,9.571L314.807,805.364a17.7087,17.7087,0,0,0,8.005,23.73h0A17.7088,17.7088,0,0,0,345.962,822.167Z" transform="translate(-50.675 -4)"/><path class="a46814cb-46b8-4529-a5b9-e352091238cd" d="M346.596,759.218l65.174,2.7,30.834,88.989-65.881-.678Z" transform="translate(-50.675 -4)"/><path class="ffd286fa-430f-4726-be1b-6634162d2aef" d="M429.304,828.887l-95.128-30.671a17.1179,17.1179,0,0,0-20.714,12.528h0a17.1184,17.1184,0,0,0,12.528,20.714l97.372,21.558Z" transform="translate(-50.675 -4)"/><path class="ffd286fa-430f-4726-be1b-6634162d2aef" d="M528.861,790.986,468.37,716.068l-2.771-35.142,12.428-.733a39.651,39.651,0,0,1,36.195,18.949l43.363,71.159a17.71,17.71,0,0,1-4.873,24.566h0A17.71,17.71,0,0,1,528.861,790.986Z" transform="translate(-50.675 -4)"/><path class="ffd286fa-430f-4726-be1b-6634162d2aef" d="M623.927,696.214,558.14,791.471a17.1179,17.1179,0,0,1-24.025,2.965h0a17.1167,17.1167,0,0,1-2.9655-24.0243l0-.0007,73.1861-89.483Z" transform="translate(-50.675 -4)"/><path class="ea4bb995-03c6-4143-9ff2-8e624bc72c71" d="M457.758,681.261l-19.918,4.352-21.45-7.255-3.656-17.115,38.97-8.325Z" transform="translate(-50.675 -4)"/><path class="ea4bb995-03c6-4143-9ff2-8e624bc72c71" d="M455.543,624.169c3.401,8.724,3.375,18.761,1.797,28.053-1.004,5.918-3.191,12.532-8.727,14.853-2.707,1.135-5.763,1.006-8.682.694-15.736-1.683-34.673-7.986-40.307-24.416a29.4489,29.4489,0,0,1,49.007-30.041A32.2488,32.2488,0,0,1,455.543,624.169Z" transform="translate(-50.675 -4)"/><path class="bc802f1a-b92b-4e4b-999f-4694f326e250" d="M485.213,1216.94l24.389,9.554-60.195,1.945-.334-10.331Z" transform="translate(-50.675 -4)"/><path class="ea4bb995-03c6-4143-9ff2-8e624bc72c71" d="M429.404,826.663c3.019-1.292,6.275-2.078,9.264-.515a11.1376,11.1376,0,0,1,3.465,3.079,19.0826,19.0826,0,0,1,3.601,16.7739c-1.628,5.608-7.672,12.0621-13.958,10.552a27.9574,27.9574,0,0,1-9.399-4.1959c-1.463-.989-2.869-2.061-4.278-3.1241-1.181-.893-3.043-1.8-3.978-2.926a5.5361,5.5361,0,0,1-.826-1.5071c-1.352-3.4409.3-6.98,2.641-9.546a32.3374,32.3374,0,0,1,9.422-6.626C426.619,827.99,427.985,827.271,429.404,826.663Z" transform="translate(-50.675 -4)"/><path class="ea4bb995-03c6-4143-9ff2-8e624bc72c71" d="M603.43,683.749s-3.867-15.654,1.304-20.81,4.833,7.792,4.833,7.792,16.036-19.078,20.877-16.449,21.1209,3.255-7.423,44.754C623.021,699.036,613.401,707.038,603.43,683.749Z" transform="translate(-50.675 -4)"/><path class="ea4bb995-03c6-4143-9ff2-8e624bc72c71" d="M433.261,687.877h9.661l-4.83,8.281Z" transform="translate(-50.675 -4)"/><path class="ea4bb995-03c6-4143-9ff2-8e624bc72c71" d="M437.84,693.462l6.591,62.944-5.966,13.434-7.921-18.717Z" transform="translate(-50.675 -4)"/><path class="ffd286fa-430f-4726-be1b-6634162d2aef" d="M417.412,681.085l21.283,88.755-28.528-44.892,7.245-12.618L401.11,698.202S400.204,676.556,417.412,681.085Z" transform="translate(-50.675 -4)"/><path class="ffd286fa-430f-4726-be1b-6634162d2aef" d="M459.748,681.085,438.465,769.84l28.529-44.892-7.246-12.618,16.302-14.128S476.956,676.556,459.748,681.085Z" transform="translate(-50.675 -4)"/><path class="ffd286fa-430f-4726-be1b-6634162d2aef" d="M415.554,672.481l22.286,13.132-6.061,7.245-15.834-12.396S412.035,673.839,415.554,672.481Z" transform="translate(-50.675 -4)"/><path class="ffd286fa-430f-4726-be1b-6634162d2aef" d="M458.197,672.481,437.84,685.613l6.06,7.245,15.835-12.396S461.716,673.839,458.197,672.481Z" transform="translate(-50.675 -4)"/><path class="bc802f1a-b92b-4e4b-999f-4694f326e250" d="M420.511,633.896c-2.524,2.354-4.062,5.122-2.84,8.532q1.8075,5.046,3.616,10.093a3.5024,3.5024,0,0,1,.24,2.517,4.69,4.69,0,0,1-1.113,1.323c-2.822,2.861-2.446,7.478-1.877,11.456-3.885.906-7.741-1.529-10.68-4.227-6.519-5.984-11.173-13.767-14.591-21.929-3.952-9.437-4.344-20.367,4.996-26.937,1.999-1.406,4.3-2.452,5.926-4.276a20.5207,20.5207,0,0,0,2.87-4.974,49.0658,49.0658,0,0,1,16.066-19.281,38.7165,38.7165,0,0,1,23.915-7.017,21.4478,21.4478,0,0,1,5.16.854,15.4288,15.4288,0,0,1,8.071,23.533c-1.904,2.74-4.632,4.781-7.311,6.771l-21.99,16.338C428.179,628.744,423.604,631.01,420.511,633.896Z" transform="translate(-50.675 -4)"/><path class="ea4bb995-03c6-4143-9ff2-8e624bc72c71" d="M420.889,644.32a7.9391,7.9391,0,0,0-1.229-.63,13.381,13.381,0,0,0-2.619-.777,4.4,4.4,0,0,0-3.048.282,3.3306,3.3306,0,0,0-1.479,2.417c-.379,2.65.848,6.123,2.266,8.305a18.6705,18.6705,0,0,0,3.07,3.364,3.24,3.24,0,0,0,2.701,1.182,8.6056,8.6056,0,0,0,4.315-.57C423.308,653.109,425.371,647.165,420.889,644.32Z" transform="translate(-50.675 -4)"/><path class="b516c66b-8cad-4c7a-9f5f-0fd001bd766d" d="M449.479,633.038s2.866,8.575,7.168,11.82-6.818,2.844-6.818,2.844" transform="translate(-50.675 -4)"/><path class="ffd286fa-430f-4726-be1b-6634162d2aef" d="M453.227,650.585l-12.285,2.624s3.268,6.023,7.686,5.912S453.227,650.585,453.227,650.585Z" transform="translate(-50.675 -4)"/></g><g class="e5a6ffdd-7faf-4b4b-994e-c25514b9322e"><path class="ffd286fa-430f-4726-be1b-6634162d2aef" d="M937.616,912.876h0A22.1113,22.1113,0,0,1,919.1368,887.65l0-.0011,24.914-180.09,52.361,8.083L962.619,895.613A22.1116,22.1116,0,0,1,937.616,912.876Z" transform="translate(-50.675 -4)"/><path class="ffd286fa-430f-4726-be1b-6634162d2aef" d="M998.399,915.733h0a22.1114,22.1114,0,0,1-22.06-22.1627v0l-2.434-181.788,52.981.123-6.362,183.005A22.11,22.11,0,0,1,998.399,915.733Z" transform="translate(-50.675 -4)"/><path class="ffd286fa-430f-4726-be1b-6634162d2aef" d="M1036.435,1131.182l-35.631,3.199L978.0611,901.295a21.0985,21.0985,0,0,1,19.1259-22.9h0a21.0978,21.0978,0,0,1,22.9,19.1264q.0362.4028.0569.8066Z" transform="translate(-50.675 -4)"/><path class="bc802f1a-b92b-4e4b-999f-4694f326e250" d="M1000.537,1132.299l-23.442,11.686,60.13-3.4191-.587-10.32Z" transform="translate(-50.675 -4)"/><path class="ffd286fa-430f-4726-be1b-6634162d2aef" d="M941.206,1131.24l-35.707-2.191,12.543-233.856a21.0992,21.0992,0,0,1,22.351-19.766h0a21.0979,21.0979,0,0,1,19.7659,22.3507q-.0248.4032-.0649.8053Z" transform="translate(-50.675 -4)"/><path class="ffd286fa-430f-4726-be1b-6634162d2aef" d="M936.667,738.624s25.861-2.103,49.78-8.452c20.57-5.46,43.789-17.714,43.789-17.714l-19.25-97.595a21.6012,21.6012,0,0,0-25.3731-17.0125q-.6854.1352-1.3609.3145l-83.644,22.203Z" transform="translate(-50.675 -4)"/><path class="b4db6a2c-e2c7-4c12-82ea-4d22f8c5e2fc" d="M986.276,687.115l15.614,19.737-2.91,2.659-15.0109-20.055Z" transform="translate(-50.675 -4)"/><path class="ae46dad7-de99-490c-b3de-9476dc3f7d48" d="M915.898,616.309l51.1749-13.585-1.544,92.24Z" transform="translate(-50.675 -4)"/><path class="ffd286fa-430f-4726-be1b-6634162d2aef" d="M883.583,738.595l39.2449-87.93-6.338-34.676-12.2,2.479a39.6526,39.6526,0,0,0-30.122,27.601L850.514,725.971a17.71,17.71,0,0,0,11.013,22.494h0A17.71,17.71,0,0,0,883.583,738.595Z" transform="translate(-50.675 -4)"/><path class="ffd286fa-430f-4726-be1b-6634162d2aef" d="M747.399,724.661l111.997,29.301a17.1182,17.1182,0,0,0,20.146-13.423h0a17.1182,17.1182,0,0,0-13.423-20.146l-113.84-20.098Z" transform="translate(-50.675 -4)"/><path class="ea4bb995-03c6-4143-9ff2-8e624bc72c71" d="M924.155,614.299l20.368-.903,18.8709-12.515L962.536,583.4l-39.8011,1.952Z" transform="translate(-50.675 -4)"/><path class="ea4bb995-03c6-4143-9ff2-8e624bc72c71" d="M911.648,558.551c-1.05,9.304,1.552,18.999,5.46,27.575,2.489,5.462,6.3,11.293,12.2459,12.117,2.907.402,5.8281-.506,8.569-1.557,14.7769-5.664,31.463-16.615,32.6929-33.94a29.4493,29.4493,0,0,0-55.0748-16.462A32.2685,32.2685,0,0,0,911.648,558.551Z" transform="translate(-50.675 -4)"/><path class="bc802f1a-b92b-4e4b-999f-4694f326e250" d="M905.548,1126.95l-24.932,8.03,59.96,5.657.971-10.291Z" transform="translate(-50.675 -4)"/><path class="ea4bb995-03c6-4143-9ff2-8e624bc72c71" d="M754.806,701.844s-7.279-14.389-14.561-14.924,1.418,9.059,1.418,9.059-24.599-4.003-26.554,1.147-13.887,16.242,34.816,29.083C749.926,726.21,762.437,726.002,754.806,701.844Z" transform="translate(-50.675 -4)"/><path class="ea4bb995-03c6-4143-9ff2-8e624bc72c71" d="M949.529,614.41l-9.337,2.478,6.7931,6.764Z" transform="translate(-50.675 -4)"/><path class="ea4bb995-03c6-4143-9ff2-8e624bc72c71" d="M946.536,620.982l9.7789,62.528,9.214,11.454,2.8531-20.123Z" transform="translate(-50.675 -4)"/><path class="ffd286fa-430f-4726-be1b-6634162d2aef" d="M963.105,603.778l2.201,91.245,16.056-50.708-10.24-10.337,12.132-17.837C983.253,616.14,978.575,594.986,963.105,603.778Z" transform="translate(-50.675 -4)"/><path class="ffd286fa-430f-4726-be1b-6634162d2aef" d="M922.186,614.64l43.343,80.324-39.092-36.07,3.766-14.055-19.381-9.473C910.822,635.367,904.393,614.678,922.186,614.64Z" transform="translate(-50.675 -4)"/><path class="ffd286fa-430f-4726-be1b-6634162d2aef" d="M962.694,594.985l-18.171,18.411,7.716,5.448L964.364,602.8C964.364,602.799,966.443,595.395,962.694,594.985Z" transform="translate(-50.675 -4)"/><path class="ffd286fa-430f-4726-be1b-6634162d2aef" d="M921.478,605.926l23.045,7.47-3.9991,8.558-18.484-7.919C922.039,614.035,918.425,608.142,921.478,605.926Z" transform="translate(-50.675 -4)"/><path class="ffd286fa-430f-4726-be1b-6634162d2aef" d="M948.003,558.964c3.044,1.628,5.241,3.908,4.935,7.518l-.906,10.683a3.5056,3.5056,0,0,0,.414,2.494,4.72,4.72,0,0,0,1.415.993c3.4619,2.042,4.283,6.599,4.753,10.59,3.987-.121,7.091-3.464,9.2379-6.826,4.766-7.456,7.268-16.172,8.4781-24.938,1.3969-10.135-1.027-20.8-11.74-24.754-2.2931-.846-4.785-1.266-6.825-2.612a20.53,20.53,0,0,1-4.05-4.071,49.0678,49.0678,0,0,0-20.476-14.514,38.7209,38.7209,0,0,0-24.914-.646,21.3986,21.3986,0,0,0-4.768,2.15,15.4286,15.4286,0,0,0-1.764,24.815c2.544,2.16,5.704,3.432,8.804,4.668q12.7214,5.0745,25.445,10.149C939.27,555.952,944.273,556.968,948.003,558.964Z" transform="translate(-50.675 -4)"/><path class="ea4bb995-03c6-4143-9ff2-8e624bc72c71" d="M950.312,569.136a7.9236,7.9236,0,0,1,1.026-.925,13.3871,13.3871,0,0,1,2.3319-1.423,4.3951,4.3951,0,0,1,3.0181-.509,3.3275,3.3275,0,0,1,2.05,1.957c1.0461,2.464.7521,6.136-.059,8.608a18.7139,18.7139,0,0,1-2.105,4.039,3.2337,3.2337,0,0,1-2.3059,1.835,8.6293,8.6293,0,0,1-4.317.557C950.229,578.251,946.709,573.035,950.312,569.136Z" transform="translate(-50.675 -4)"/><path class="b516c66b-8cad-4c7a-9f5f-0fd001bd766d" d="M919.785,565.566s-.57,9.023-3.896,13.264,7.319,1,7.319,1" transform="translate(-50.675 -4)"/><path class="ffd286fa-430f-4726-be1b-6634162d2aef" d="M920.663,583.488l12.547-.615s-1.613,6.66-5.911,7.686S920.663,583.488,920.663,583.488Z" transform="translate(-50.675 -4)"/><path class="ffd286fa-430f-4726-be1b-6634162d2aef" d="M1028.599,614.116a26.2894,26.2894,0,0,0-31.192-18.9l-11.246,2.537L956.127,699.63a17.71,17.71,0,0,0,33.0709,12.623l35.545-65.68a44.3157,44.3157,0,0,0,3.856-32.457Z" transform="translate(-50.675 -4)"/><path class="ffd286fa-430f-4726-be1b-6634162d2aef" d="M911.951,853.615,986.518,715.67a17.1168,17.1168,0,0,0-8.6313-22.6157l-.0007,0h0a17.1167,17.1167,0,0,0-22.6154,8.6315l-.0006.0015L889.268,843.465Z" transform="translate(-50.675 -4)"/><path class="ea4bb995-03c6-4143-9ff2-8e624bc72c71" d="M891.654,839.806s-15.643,3.914-17.775,10.897,9.148.6209,9.148.6209-9.347,23.1031-4.757,26.149,12.768,17.1371,36.0659-27.519C914.336,849.955,916.901,837.708,891.654,839.806Z" transform="translate(-50.675 -4)"/></g><g class="e5a6ffdd-7faf-4b4b-994e-c25514b9322e"><path class="ea4bb995-03c6-4143-9ff2-8e624bc72c71" d="M1134.382,1069.025h0a24.1526,24.1526,0,0,1-17.2589-29.4758v0l47.2011-192.893,55.99,14.637-56.836,191.771A24.1507,24.1507,0,0,1,1134.382,1069.025Z" transform="translate(-50.675 -4)"/><path class="ea4bb995-03c6-4143-9ff2-8e624bc72c71" d="M1195.494,1253.943l-20.4931,3.257-57.616-202.854a23.0444,23.0444,0,0,1,16.49-28.11h.0007a23.0429,23.0429,0,0,1,28.1082,16.4888q.1116.4286.2068.8611Z" transform="translate(-50.675 -4)"/><path class="ffd286fa-430f-4726-be1b-6634162d2aef" d="M1175.711,1257.204l-24.238,15.203,46.045-7.174-1.738-11.156Z" transform="translate(-50.675 -4)"/><path class="ea4bb995-03c6-4143-9ff2-8e624bc72c71" d="M1236.325,1079.477h0a24.1518,24.1518,0,0,1-25.284-22.9638v-.0012l-12.648-198.18,57.8051-2.778,3.12,199.99A24.1545,24.1545,0,0,1,1236.325,1079.477Z" transform="translate(-50.675 -4)"/><path class="ea4bb995-03c6-4143-9ff2-8e624bc72c71" d="M1259.206,1269.426l-20.75.043-25.4969-209.3319a23.0453,23.0453,0,0,1,20.6468-25.216h0a23.0448,23.0448,0,0,1,25.2156,20.6469q.0435.4389.0705.8791Z" transform="translate(-50.675 -4)"/><path class="ffd286fa-430f-4726-be1b-6634162d2aef" d="M1130.406,857.772l45.1418-115.642-42.292-13.224-36.59,117.022a17.89,17.89,0,0,0,11.736,22.413h0A17.8885,17.8885,0,0,0,1130.406,857.772Z" transform="translate(-50.675 -4)"/><path class="ffd286fa-430f-4726-be1b-6634162d2aef" d="M1047.083,826.796l58.421,45.021a17.29,17.29,0,0,0,21.954-10.7662l.0009-.0028h0c3.09-9.037-1.732-18.867-10.7689-10.4652l-63.616-29.8219Z" transform="translate(-50.675 -4)"/><path class="ffd286fa-430f-4726-be1b-6634162d2aef" d="M1159.2969,663.809s20.4439-37.061,63.492,1.119c62.6379,55.555,76.4809,62.938,99.0379,55.823,73.94-23.32,110.0241,171.458-87.62,105.168C1234.207,825.92,1120.562,746.644,1159.2969,663.809Z" transform="translate(-50.675 -4)"/><path class="ffd286fa-430f-4726-be1b-6634162d2aef" d="M1253.244,860.9888l-45.974-115.314,42.196-13.528,37.432,116.7552a17.89,17.89,0,0,1-11.574,22.4971h0A17.8888,17.8888,0,0,1,1253.244,860.9888Z" transform="translate(-50.675 -4)"/><path class="ffd286fa-430f-4726-be1b-6634162d2aef" d="M1255.774,848.535s29.719,79.665,10.25,166.127c0,0-70.171,18.561-145.358-17.075,0,0,20.7878-82.409,37.576-142.297C1158.242,855.29,1203.598,831.124,1255.774,848.535Z" transform="translate(-50.675 -4)"/><path class="ffd286fa-430f-4726-be1b-6634162d2aef" d="M1152.6779,862.53l36.934.476a11.1249,11.1249,0,0,0,11.453-8.021l3.0019-10.4309,4.1591,8.888a12.59,12.59,0,0,0,14.571,6.849l37.448-9.1191-15.604-51.865,7.716-81.463s-36.817-.604-58.487,1.417-60.6939,21.1909-60.6939,21.1909l26.667,80.905Z" transform="translate(-50.675 -4)"/><path class="ea4bb995-03c6-4143-9ff2-8e624bc72c71" d="M1179.4689,762.332c9.2221,5.185,55.4019-6.019,44.5761-44.447-10.252.173-21.442.561-30.1751,1.375-7.281.679-16.521,1.998-25.5839,3.449C1168.9529,731.368,1171.618,757.919,1179.4689,762.332Z" transform="translate(-50.675 -4)"/><path class="ea4bb995-03c6-4143-9ff2-8e624bc72c71" d="M1205.8713,729.4332l-24.8557,2.3191-2.9408-31.52,24.8556-2.3191Z" transform="translate(-50.675 -4)"/><path class="ea4bb995-03c6-4143-9ff2-8e624bc72c71" d="M1158.3809,676.999c.17,8.177,3.064,16.149,6.68,23.315,2.784,5.521,6.836,10.874,11.871,10.999,3.373.084,6.4849-2.222,9.291-4.668,7.438-6.485,14.305-17.679,14.219-29.937-.106-15.277-9.626-27.595-21.262-27.514-8.088.057-15.589,6.398-18.965,16.032A33.1816,33.1816,0,0,0,1158.3809,676.999Z" transform="translate(-50.675 -4)"/><path class="b516c66b-8cad-4c7a-9f5f-0fd001bd766d" d="M1167.48,689.467s-.0069,5.432-2.25,5.397a4.3916,4.3916,0,0,0,4.804,1.552" transform="translate(-50.675 -4)"/><path class="ffd286fa-430f-4726-be1b-6634162d2aef" d="M1168.418,701.525c2.58,1.056,4.8791-1.619,4.8791-1.619s.639,4.252-1.402,4.716S1168.418,701.525,1168.418,701.525Z" transform="translate(-50.675 -4)"/><path class="ffd286fa-430f-4726-be1b-6634162d2aef" d="M1160.426,660.398s5.01,41.153,47.5179,49.104c0,0,4.1812-59.792-22.191-61.869C1159.379,645.556,1160.426,660.398,1160.426,660.398Z" transform="translate(-50.675 -4)"/><path class="ffd286fa-430f-4726-be1b-6634162d2aef" d="M1239.1569,1269.583l-26.3009,11.265,46.6.045.012-11.291Z" transform="translate(-50.675 -4)"/><path class="ea4bb995-03c6-4143-9ff2-8e624bc72c71" d="M1058.575,807.395s-3.178-14.546-9.563-16.708-.828,8.426-.828,8.426-21.062-9.269-24.001-5.117-16.171,11.307,24.395,34.051C1048.576,828.047,1059.808,830.755,1058.575,807.395Z" transform="translate(-50.675 -4)"/><path class="ae46dad7-de99-490c-b3de-9476dc3f7d48" d="M1221.754,739.477s-12.892,8.191-24.648,9.288c-12.8669,1.2-25.826-4.58-25.826-4.58s-.526,29.062,29.551,57.222C1200.83,801.407,1225.253,774.387,1221.754,739.477Z" transform="translate(-50.675 -4)"/><path class="b4db6a2c-e2c7-4c12-82ea-4d22f8c5e2fc" d="M1214.4689,716.41s3.684,20.788,1.24,42.542a106.7647,106.7647,0,0,1-14.879,42.455l32.843-38.883-9.159-12.988,9.421-16.163S1232.7239,709.74,1214.4689,716.41Z" transform="translate(-50.675 -4)"/><path class="b4db6a2c-e2c7-4c12-82ea-4d22f8c5e2fc" d="M1172.821,720.295s.225,21.11,6.6479,42.038a115.3319,115.3319,0,0,0,21.361,39.074l-38.355-32.242,6.601-14.458-12.2481-14.142C1156.827,740.565,1153.647,717.116,1172.821,720.295Z" transform="translate(-50.675 -4)"/><path class="b4db6a2c-e2c7-4c12-82ea-4d22f8c5e2fc" d="M1171.55,820.265l-8.564,26.122,3.985,1.627,7.8261-26.218Z" transform="translate(-50.675 -4)"/><path class="b4db6a2c-e2c7-4c12-82ea-4d22f8c5e2fc" d="M1235.044,814.343l13.247,24.087-3.615,2.336-12.54-24.319Z" transform="translate(-50.675 -4)"/><path class="ffd286fa-430f-4726-be1b-6634162d2aef" d="M1135.9639,816.716l132.4881,41.533a17.2932,17.2932,0,0,0,20.7879-12.881h0a17.2925,17.2925,0,0,0-12.8809-20.788h0l-136.16-25.896Z" transform="translate(-50.675 -4)"/><path class="ea4bb995-03c6-4143-9ff2-8e624bc72c71" d="M1142.267,794.427s-6.2779-13.5-12.982-14.216,1.0329,8.403,1.0329,8.403-22.5789-4.443-24.54.25-13.311,14.567,31.2439,27.9C1137.022,816.764,1148.574,816.952,1142.267,794.427Z" transform="translate(-50.675 -4)"/></g></g></svg>